<?xml version="1.0" encoding="UTF-8"?>
<svg xmlns="http://www.w3.org/2000/svg" xmlns:xlink="http://www.w3.org/1999/xlink" viewBox="0 0 568 570" version="1.1">
<g id="surface1">
<path style=" stroke:none;fill-rule:evenodd;fill:rgb(56.443787%,68.943787%,5.099487%);fill-opacity:1;" d="M 13.675781 625.785156 L 96.558594 625.785156 C 113.855469 625.785156 138.683594 637.960938 139.445313 673.339844 C 140.203125 708.722656 107.207031 721.449219 93.289063 721.449219 L 51.773438 721.449219 L 51.773438 747.757813 C 51.773438 753.253906 47.433594 759.589844 38.832031 759.589844 L 0.488281 759.589844 L 0.488281 637.199219 C 0.488281 629.765625 8.398438 625.785156 13.675781 625.785156 Z M 51.773438 656.246094 L 70.089844 656.246094 C 79.222656 656.246094 86.695313 663.71875 86.695313 672.851563 C 86.695313 682.375 80.09375 690.433594 70.089844 690.433594 L 51.773438 690.433594 Z M 161.910156 625.785156 L 198.296875 625.785156 C 205.957031 625.785156 213.4375 633.203125 213.4375 640.859375 L 213.4375 721.449219 L 264.832031 721.449219 L 264.832031 748.382813 C 264.832031 754.050781 257.578125 759.589844 252.109375 759.589844 L 161.910156 759.589844 Z M 283.527344 625.785156 L 319.914063 625.785156 C 327.570313 625.785156 335.054688 633.203125 335.054688 640.859375 L 335.054688 701.914063 C 335.378906 719.089844 337.34375 727.609375 351.839844 727.609375 C 366.335938 727.609375 367.964844 719.082031 367.621094 702.15625 L 367.535156 625.785156 L 405.140625 625.785156 C 412.464844 625.785156 419.171875 633.539063 419.171875 640.859375 L 419.171875 702.644531 C 417.078125 754.238281 383.609375 762.480469 353.859375 762.765625 C 324.105469 763.050781 283.527344 757.992188 283.527344 704.109375 Z M 558.867188 628.058594 L 558.867188 642.335938 C 558.867188 652.183594 551.257813 658.820313 539.636719 657.78125 C 532.289063 657.121094 525.148438 654.84375 517.78125 655.160156 C 510.101563 655.484375 496.554688 655.632813 496.804688 664.484375 C 497.144531 676.5625 520.789063 674.847656 530.605469 677.59375 C 548.175781 682.511719 568.507813 691.03125 567.027344 719.554688 C 565.304688 752.75 534.144531 763.609375 502.628906 763.554688 C 467.691406 763.488281 445.066406 757.960938 445.226563 744.90625 L 445.519531 721.011719 C 460.089844 727.03125 474.648438 731.003906 489.226563 730.917969 C 508.085938 730.808594 515.273438 727.195313 515.453125 721.59375 C 515.695313 713.933594 499.371094 710.65625 476.40625 706.152344 C 454.933594 701.9375 444.171875 687.222656 444.0625 665.066406 C 443.894531 631.335938 484.488281 622.683594 510.207031 622.523438 C 526.863281 622.421875 542.988281 624.855469 558.867188 628.058594 "/>
<path style=" stroke:none;fill-rule:evenodd;fill:rgb(26.298523%,38.798523%,57.598877%);fill-opacity:1;" d="M 126.6875 299.890625 L 208.316406 299.890625 C 248.921875 299.890625 260.472656 327.679688 260.460938 344.203125 L 260.378906 435.539063 C 260.316406 505.9375 199.632813 563.359375 129.949219 563.359375 C 60.269531 563.359375 0.171875 503.980469 0.171875 433.582031 C 0.171875 363.179688 57.007813 299.890625 126.6875 299.890625 "/>
<path style=" stroke:none;fill-rule:evenodd;fill:rgb(56.443787%,68.943787%,5.099487%);fill-opacity:1;" d="M 126.6875 264.023438 L 208.316406 264.023438 C 248.921875 264.023438 260.472656 236.234375 260.460938 219.710938 L 260.378906 128.378906 C 260.316406 57.976563 199.632813 0.558594 129.949219 0.558594 C 60.269531 0.558594 0.171875 59.933594 0.171875 130.335938 C 0.171875 200.734375 57.007813 264.023438 126.6875 264.023438 "/>
<path style=" stroke:none;fill-rule:evenodd;fill:rgb(92.89856%,10.998535%,14.099121%);fill-opacity:1;" d="M 431.523438 264.023438 L 349.898438 264.023438 C 309.292969 264.023438 297.742188 236.234375 297.753906 219.710938 L 297.835938 128.378906 C 297.894531 57.976563 358.582031 0.558594 428.265625 0.558594 C 497.945313 0.558594 558.039063 59.933594 558.039063 130.335938 C 558.039063 200.734375 501.207031 264.023438 431.523438 264.023438 "/>
<path style=" stroke:none;fill-rule:evenodd;fill:rgb(0%,33.714294%,23.143005%);fill-opacity:1;" d="M 431.523438 299.890625 L 349.898438 299.890625 C 309.292969 299.890625 297.742188 327.679688 297.753906 344.203125 L 297.835938 435.539063 C 297.894531 505.9375 358.582031 563.359375 428.265625 563.359375 C 497.945313 563.359375 558.039063 503.980469 558.039063 433.582031 C 558.039063 363.179688 501.207031 299.890625 431.523438 299.890625 "/>
</g>
</svg>
